<svg id="圖層_1" data-name="圖層 1" xmlns="http://www.w3.org/2000/svg" viewBox="0 0 32 32"><defs><style>.cls-1{fill:#231815;}.cls-2{fill:#fff;}</style></defs><rect class="cls-1" width="32" height="32"/><path class="cls-2" d="M5.87,9.06h0l.29,0,.28,0a4.34,4.34,0,0,1,.6.14A4.28,4.28,0,0,1,8.48,10a4.75,4.75,0,0,1,1.41,2,5.11,5.11,0,0,1,.25.87,4.1,4.1,0,0,1,.06.49,5.15,5.15,0,0,1,0,.68c0,.16,0,.31-.05.47a6,6,0,0,1-.2.81,4.47,4.47,0,0,1-.73,1.36,4.22,4.22,0,0,1-2.18,1.47,3,3,0,0,1-.52.11,4,4,0,0,1-.6,0l-.31,0a3.34,3.34,0,0,1-.62-.1,4.05,4.05,0,0,1-1.33-.58A4.67,4.67,0,0,1,2.26,16.1a4.78,4.78,0,0,1-.56-1.41,5.43,5.43,0,0,1-.09-.56c0-.11,0-.22,0-.33s0-.11,0-.16,0-.28,0-.42,0-.27,0-.4a5.63,5.63,0,0,1,.23-.92A4.49,4.49,0,0,1,3,10.22a4.36,4.36,0,0,1,1.43-.91,3.88,3.88,0,0,1,.69-.18,3.43,3.43,0,0,1,.55-.06h.21ZM2.55,13.61a2.73,2.73,0,0,0,0,.41,2.54,2.54,0,0,0,.09.54,3.69,3.69,0,0,0,1.3,2,2.94,2.94,0,0,0,1,.57,2.9,2.9,0,0,0,.65.14h.39a2.61,2.61,0,0,0,.48,0A3,3,0,0,0,7.34,17,3.3,3.3,0,0,0,8.8,15.56a3.74,3.74,0,0,0,.44-1.66,3.46,3.46,0,0,0,0-.79A4.39,4.39,0,0,0,9,12.42a3.83,3.83,0,0,0-1-1.56A3.17,3.17,0,0,0,7,10.27a2.65,2.65,0,0,0-.78-.21,2.33,2.33,0,0,0-.37,0H5.54l-.35.05a2.93,2.93,0,0,0-.9.36,3.45,3.45,0,0,0-1.45,1.68A4,4,0,0,0,2.55,13.61Z"/><path class="cls-2" d="M16,22.94s0,0,0,0a.11.11,0,0,1,0-.07v-3A.08.08,0,0,1,16,19.8h.49a.08.08,0,0,1,.07.07v1.24h.47a.13.13,0,0,0,0-.06V19.87a.06.06,0,0,1,.07-.07h.49a.07.07,0,0,1,.06.07v3a.12.12,0,0,1,0,.11h-.53l0,0a.08.08,0,0,1,0-.07V21.67a.13.13,0,0,0,0-.06H16.6s0,0,0,.07V22.8a.17.17,0,0,1,0,.14Z"/><path class="cls-2" d="M21.55,22.94l-.07,0a.83.83,0,0,1-.65-.67.61.61,0,0,1,0-.14c0-.71,0-1.43,0-2.14,0,0,0,0,0-.07a.14.14,0,0,1,.11-.1h.4a.15.15,0,0,1,.11.12v2.23a.21.21,0,0,0,.41,0V19.92A.14.14,0,0,1,22,19.8h.4a.14.14,0,0,1,.1.1s0,.05,0,.08v2.13a.77.77,0,0,1-.16.48.88.88,0,0,1-.51.33.1.1,0,0,0-.07,0Z"/><path class="cls-2" d="M19.18,22.94l-.08,0a.84.84,0,0,1-.64-.64.77.77,0,0,1,0-.15V20.6a.83.83,0,0,1,1.64-.15s0,.09,0,.13v1.5a1.24,1.24,0,0,1,0,.27.85.85,0,0,1-.63.57l-.08,0Zm.3-1.57v-.71a.07.07,0,0,0,0-.05.19.19,0,0,0-.17-.19.2.2,0,0,0-.22.13.28.28,0,0,0,0,.09v1.48a.19.19,0,0,0,.17.19.21.21,0,0,0,.23-.13.28.28,0,0,0,0-.09Z"/><path class="cls-2" d="M26.06,22.94l0,0a.15.15,0,0,1-.07-.13V19.93a.15.15,0,0,1,.11-.13h1.18a.14.14,0,0,1,.14.14v.4a.14.14,0,0,1-.14.14h-.59s0,.09,0,.13v.14a.53.53,0,0,0,0,.13.05.05,0,0,0,.05,0h.54a.15.15,0,0,1,.14.13v.42a.13.13,0,0,1-.14.13h-.59s0,0,0,0v.63h.6a.13.13,0,0,1,.13.14v.4a.12.12,0,0,1-.07.12l0,0Z"/><path class="cls-2" d="M24.07,22.94a.1.1,0,0,0-.07,0,.91.91,0,0,1-.71-.68,1.11,1.11,0,0,1,0-.19.2.2,0,0,1,.14-.2h.27a.2.2,0,0,1,.2.16v.05l0,.09a.25.25,0,0,0,.28.15.28.28,0,0,0,.17-.09.25.25,0,0,0,.06-.27.35.35,0,0,0-.11-.13l-.12-.08-.13-.07a1.3,1.3,0,0,1-.41-.24,1,1,0,0,1-.29-.33.82.82,0,0,1-.09-.43.75.75,0,0,1,.05-.26.78.78,0,0,1,.4-.47,1,1,0,0,1,.89,0,.78.78,0,0,1,.43.54.91.91,0,0,1,0,.23.21.21,0,0,1-.15.19h-.23a.21.21,0,0,1-.2-.2.19.19,0,0,1,0-.08.27.27,0,0,0-.24-.22.28.28,0,0,0-.18,0,.25.25,0,0,0-.16.22.27.27,0,0,0,.07.23.81.81,0,0,0,.1.09l.16.1.34.2a.87.87,0,0,1,.23.16.84.84,0,0,1,.26.49,1,1,0,0,1-.4.89.81.81,0,0,1-.3.13l-.08,0Z"/><path class="cls-2" d="M30.42,12.93a.2.2,0,0,0,0,.07s0,.08,0,.12a.2.2,0,0,1,0,.07l-.07,0a.19.19,0,0,0-.15,0,.09.09,0,0,0,0,.06v1.15a.13.13,0,0,1,0,.06h-.37V13h0a.81.81,0,0,1,.3-.13.42.42,0,0,1,.33.06h0Z"/><path class="cls-2" d="M15,13.5a1.57,1.57,0,0,1-1.12-.45l0,0L10.6,9.86l0,0a.14.14,0,0,1,0-.21l0,0L11,9.17l0,0a.17.17,0,0,1,.19,0l0,0,3.18,3.14.07.07a.63.63,0,0,0,.81-.05l1.75-1.73.77-.77.69-.68.06-.05a.15.15,0,0,1,.19,0l0,0,.44.43,0,0a.16.16,0,0,1,0,.2l0,0L16.06,13a1.54,1.54,0,0,1-.52.35,1.14,1.14,0,0,1-.4.11Z"/><path class="cls-2" d="M14.93,13.84a1.62,1.62,0,0,1,1.1.45l0,0,3.19,3.15,0,0a.15.15,0,0,1,0,.2l0,0-.44.44-.07,0a.12.12,0,0,1-.15,0s0,0-.05-.05l-3-2.91L15.34,15a.58.58,0,0,0-.81,0l0,0-3.19,3.15,0,0a.17.17,0,0,1-.21,0l0,0-.42-.42a.08.08,0,0,1,0,0,.15.15,0,0,1,0-.19l0,0,3.23-3.19a1.49,1.49,0,0,1,.79-.42Z"/><path class="cls-2" d="M21.67,13.69v4.46a.15.15,0,0,1-.12.15h-.74a.13.13,0,0,1-.1-.1s0,0,0-.05V9.23a.16.16,0,0,1,.15-.15h.71a.15.15,0,0,1,.11.13s0,0,0,.06Z"/><path class="cls-2" d="M12.2,20.4a2.8,2.8,0,0,0,0,.41h.61a.12.12,0,0,1,.11.11.07.07,0,0,1,0,.05v.35a.15.15,0,0,1,0,.07.14.14,0,0,1-.12.1h-.6v.67s0,0,.05,0h.55a.12.12,0,0,1,.12.09.13.13,0,0,1,0,.06v.4a.14.14,0,0,1-.15.13H11.62a.15.15,0,0,1-.12-.13v-2.9a.14.14,0,0,1,.13-.13H12.8a.13.13,0,0,1,.12.1.13.13,0,0,1,0,.06v.41a.16.16,0,0,1-.14.12H12.2Z"/><path class="cls-2" d="M9.79,21.54v0l.15-.72c.05-.26.11-.52.16-.79a1.16,1.16,0,0,0,0-.18.13.13,0,0,1,.09-.1h.49a.08.08,0,0,1,.07.07,0,0,0,0,1,0,0c0,.07,0,.14,0,.21l-.15.73-.18.86c-.06.26-.11.52-.17.78a3.4,3.4,0,0,1-.07.34.15.15,0,0,1-.17.14H9.56a.14.14,0,0,1-.14-.11.75.75,0,0,0,0-.16l-.27-1.18c-.08-.39-.17-.79-.26-1.18,0-.13-.06-.27-.1-.41v0a.07.07,0,0,1,.06-.07h.45a.13.13,0,0,1,.13.11.29.29,0,0,1,0,.09c.1.4.19.81.28,1.22l.09.38Z"/><path class="cls-2" d="M25.78,16a2.4,2.4,0,0,1,.39,0c.07.4.13.81.2,1.23,0,0,0,0,0-.06.05-.24.09-.49.14-.74s0-.28.08-.42H27v.05c-.07.36-.14.71-.2,1.07s-.15.76-.22,1.13a.08.08,0,0,1,0,0,1.08,1.08,0,0,1-.18,0h-.17a.61.61,0,0,1,0-.13l-.09-.54c0-.15-.05-.31-.07-.46s0-.19-.05-.3,0,0,0,0,0,.2-.05.3l-.06.39-.06.38c0,.1,0,.2-.05.3a0,0,0,0,1,0,0,1.08,1.08,0,0,1-.18,0h-.17a0,0,0,0,1,0,0c-.14-.75-.29-1.5-.43-2.25v0h.39a.53.53,0,0,1,0,.12c0,.24.09.47.13.71s.05.26.08.4c0,0,0,0,0,0a1.57,1.57,0,0,0,0-.23l.06-.38c0-.13,0-.26.07-.4a1,1,0,0,1,0-.16A0,0,0,0,0,25.78,16Z"/><path class="cls-2" d="M4.88,21.29V19.84A.13.13,0,0,1,5,19.71h.47a.12.12,0,0,1,.09.12v2.22a.14.14,0,0,0,.11.12h.57a.13.13,0,0,1,.13.12v.43a.14.14,0,0,1-.13.13H5a.12.12,0,0,1-.1-.12V21.29Z"/><path class="cls-2" d="M7.4,21.29V19.84a.14.14,0,0,1,.14-.13H8a.13.13,0,0,1,.14.13.09.09,0,0,1,0,.05v2.8a.13.13,0,0,1,0,.06.14.14,0,0,1-.13.12H7.52a.15.15,0,0,1-.12-.13V21.29Z"/><path class="cls-2" d="M24,16.46a.5.5,0,0,0-.24-.1l-.14,0h-.07a.11.11,0,0,0-.1.07.28.28,0,0,0,0,.13.76.76,0,0,0,.06.2,1.34,1.34,0,0,0,.13.27l.23.37,0,0a1.45,1.45,0,0,0,0-.48.88.88,0,0,0-.07-.23l.05,0a2.62,2.62,0,0,1,.56,0h0a.49.49,0,0,1,0,.17.11.11,0,0,1-.09.09h-.1a0,0,0,0,0,0,0,1.64,1.64,0,0,1,0,.23,1.27,1.27,0,0,1,0,.34,1.16,1.16,0,0,1,0,.18v0a.71.71,0,0,0,.15.15l.09.06s0,0,0,0l0,.1a.46.46,0,0,1-.16.15.08.08,0,0,1-.1,0l-.09-.08L24,18.13a.05.05,0,0,0,0,0,.84.84,0,0,1-.4.14.63.63,0,0,1-.27,0,.43.43,0,0,1-.24-.18.75.75,0,0,1-.11-.28.5.5,0,0,1,0-.21.52.52,0,0,1,.12-.26l.17-.16s0,0,.05-.05l0-.05a2.86,2.86,0,0,1-.15-.41.7.7,0,0,1,0-.28.36.36,0,0,1,0-.11.34.34,0,0,1,.13-.18l.2-.07a1.34,1.34,0,0,1,.4,0,.7.7,0,0,1,.2.08c.07,0,.09.08.07.16a1,1,0,0,1,0,.1Zm-.24,1.39h0l-.31-.44h0l0,0a.44.44,0,0,0-.1.35.22.22,0,0,0,.06.13.19.19,0,0,0,.2.06A.32.32,0,0,0,23.76,17.85Z"/><path class="cls-2" d="M22.94,13.33v-.48a.91.91,0,0,1,0-.23.65.65,0,0,1,.52-.44.66.66,0,0,1,.78.54.37.37,0,0,1,0,.11v1a.67.67,0,0,1-.49.64A.68.68,0,0,1,23,14a.86.86,0,0,1,0-.16Zm.39,0v.5a.26.26,0,0,0,.18.24.28.28,0,0,0,.3-.06.26.26,0,0,0,.09-.21v-1h0a.28.28,0,0,0-.24-.27.27.27,0,0,0-.32.18.49.49,0,0,0,0,.12Z"/><path class="cls-2" d="M25.23,14.06c0-.07,0-.14.05-.21a1.6,1.6,0,0,1,0-.21l0-.21c0-.07,0-.14.05-.2s0-.15,0-.22a1.17,1.17,0,0,1,.05-.2h.36s0,0,0,0l-.18.76-.24,1.07-.09.39a.8.8,0,0,1-.11.25.39.39,0,0,1-.32.18l-.3,0a.23.23,0,0,1-.11,0,.16.16,0,0,1-.09-.15.46.46,0,0,1,.06-.23s0,0,0,0h.05l.14.07.08,0A.15.15,0,0,0,25,15a.25.25,0,0,0,0-.17l-.12-.57-.21-.94c0-.17-.07-.33-.11-.49s0,0,0-.06h.38l.09.41.09.42c0,.14.07.28.1.41Z"/><path class="cls-2" d="M29.12,18.29a2.28,2.28,0,0,1-.37,0V17.14s0-.06,0-.08a.14.14,0,0,0-.08-.1.09.09,0,0,0-.1,0l0,.05s0,0,0,0v1.24h-.35a.07.07,0,0,1,0-.05V16.76l0,0,.35-.1a.78.78,0,0,1,.34,0,.31.31,0,0,1,.26.33v1.31Z"/><path class="cls-2" d="M28.77,13.8a.62.62,0,0,0,0,.19.18.18,0,0,0,.11.1H29a.62.62,0,0,0,.23-.07l.06,0v0l0,.31,0,0a.81.81,0,0,1-.22.07,1.27,1.27,0,0,1-.28,0,.37.37,0,0,1-.31-.21,1.25,1.25,0,0,1-.09-.25,2.13,2.13,0,0,1,0-.5,1.86,1.86,0,0,1,.06-.34,1.28,1.28,0,0,1,.11-.2.48.48,0,0,1,.26-.16.5.5,0,0,1,.46.17.35.35,0,0,1,.08.24,1.69,1.69,0,0,1,0,.32l0,.21s0,0,0,0l-.24,0-.24,0Zm.23-.29v0a.82.82,0,0,0,0-.27.16.16,0,0,0-.05-.09.06.06,0,0,0-.09,0l0,0a.36.36,0,0,0,0,.09.74.74,0,0,0,0,.26,0,0,0,0,0,0,0Z"/><path class="cls-2" d="M30.35,17.6a3,3,0,0,1-.52,0,0,0,0,0,0,0,0,.49.49,0,0,0,0,.12.18.18,0,0,0,.17.15.64.64,0,0,0,.2,0l.13-.05.05,0a1.78,1.78,0,0,1,0,.34.25.25,0,0,1-.09,0,.71.71,0,0,1-.24.06h-.22a.33.33,0,0,1-.28-.18.67.67,0,0,1-.09-.26,2.12,2.12,0,0,1,0-.56,1.32,1.32,0,0,1,.08-.33,1,1,0,0,1,.08-.14.43.43,0,0,1,.49-.16.51.51,0,0,1,.18.09.32.32,0,0,1,.13.27,1.41,1.41,0,0,1,0,.29,1.49,1.49,0,0,1,0,.21A.32.32,0,0,1,30.35,17.6Zm-.3-.25a.31.31,0,0,0,0-.08.81.81,0,0,0,0-.22A.2.2,0,0,0,30,17a.07.07,0,0,0-.11,0,.21.21,0,0,0-.06.1,1.15,1.15,0,0,0,0,.26v0Z"/><path class="cls-2" d="M27.48,12.41h.37a.09.09,0,0,1,0,0v.36h.26s0,.1,0,.15a.76.76,0,0,1,0,.15h-.25a0,0,0,0,0,0,0v.95a.08.08,0,0,0,.08.07.12.12,0,0,0,.09,0l.06,0a.08.08,0,0,1,0,0v.22a.06.06,0,0,1,0,.06l-.07,0a1,1,0,0,1-.34,0,.19.19,0,0,1-.16-.15.5.5,0,0,1,0-.12c0-.2,0-.39,0-.59v-.47H27.3a.38.38,0,0,1,0-.15v-.14h.17s0,0,0-.05v-.29S27.48,12.43,27.48,12.41Z"/><path class="cls-2" d="M26.12,14.36a1.09,1.09,0,0,1,.07-.27h0l.16.06a.18.18,0,0,0,.22-.22.3.3,0,0,0,0-.1l-.09-.09-.1-.09a1.07,1.07,0,0,1-.18-.19,1,1,0,0,1-.08-.18.38.38,0,0,1,.11-.39.41.41,0,0,1,.2-.09h.27a.71.71,0,0,1,.2,0,.2.2,0,0,1,.08,0c.05,0,.06,0,0,.1s-.05.12-.08.19l0,0a.45.45,0,0,0-.3,0l0,0a.09.09,0,0,0,0,.07l0,.06.06.09.16.17a1,1,0,0,1,.15.21A.58.58,0,0,1,27,14a.3.3,0,0,1-.09.28.33.33,0,0,1-.14.1.78.78,0,0,1-.27.09.74.74,0,0,1-.21,0A.39.39,0,0,1,26.12,14.36Z"/><path class="cls-2" d="M27.33,18.3c0-.06,0-1.62,0-1.67h.36a0,0,0,0,1,0,0v1.56s0,.05,0,.07h-.37Z"/><path class="cls-2" d="M27.51,16.48a.18.18,0,0,1-.19-.19.19.19,0,0,1,.19-.19.21.21,0,0,1,.2.19A.19.19,0,0,1,27.51,16.48Z"/></svg>